<svg width="32" height="32" viewBox="0 0 32 32" fill="none" xmlns="http://www.w3.org/2000/svg">
<path d="M25.6169 21.7146L28 21.7143V16.9796L24 12.5714H20V21.7143M25.6169 21.7146C25.3816 21.0486 24.7465 20.5714 24 20.5714M25.6169 21.7146C25.68 21.8933 25.7143 22.0855 25.7143 22.2857M24 20.5714C23.2535 20.5714 22.6184 21.0486 22.3831 21.7146M24 20.5714C24.9468 20.5714 25.7143 21.3389 25.7143 22.2857M24 20.5714C23.0532 20.5714 22.2857 21.3389 22.2857 22.2857M22.3831 21.7146L20 21.7143M22.3831 21.7146C22.32 21.8933 22.2857 22.0855 22.2857 22.2857M20 21.7143V8H4M20 21.7143L11.9026 21.7146M11.9026 21.7146C11.6673 21.0486 11.0323 20.5714 10.2857 20.5714M11.9026 21.7146C11.9657 21.8933 12 22.0855 12 22.2857M10.2857 20.5714C9.53918 20.5714 8.9041 21.0486 8.66886 21.7146M10.2857 20.5714C11.2325 20.5714 12 21.3389 12 22.2857M10.2857 20.5714C9.33894 20.5714 8.57143 21.3389 8.57143 22.2857M8.66886 21.7146L7.42857 21.7143M8.66886 21.7146C8.60576 21.8933 8.57143 22.0855 8.57143 22.2857M25.7143 22.2857C25.7143 23.2325 24.9468 24 24 24C23.0532 24 22.2857 23.2325 22.2857 22.2857M12 22.2857C12 23.2325 11.2325 24 10.2857 24C9.33894 24 8.57143 23.2325 8.57143 22.2857M8 14.8571H6.28571M8 18.2857H7.42857M8 11.4286H5.14286" stroke="#8B5E35" stroke-width="2" stroke-linecap="round"/>
</svg>
