<svg width="190" height="88" viewBox="0 0 190 88" fill="none" xmlns="http://www.w3.org/2000/svg">
<path d="M6.11638 56V55.04L7.10838 54.944C7.74838 54.88 8.23904 54.7733 8.58038 54.624C8.92171 54.4747 9.15638 54.2507 9.28438 53.952C9.41238 53.632 9.47638 53.2267 9.47638 52.736V34.848L6.08438 34.912C5.06038 34.9333 4.28171 35.0827 3.74838 35.36C3.21504 35.6373 2.80971 36.0533 2.53238 36.608C2.25504 37.1413 1.97771 37.824 1.70038 38.656H0.740375L1.02838 33.408C1.64704 33.472 2.36171 33.5253 3.17238 33.568C4.00438 33.5893 4.82571 33.6 5.63638 33.6H16.3244C17.007 33.6 17.7644 33.5893 18.5964 33.568C19.4497 33.5253 20.2284 33.472 20.9324 33.408L21.2204 38.656H20.2604C19.983 37.824 19.7057 37.1413 19.4284 36.608C19.151 36.0533 18.7457 35.6373 18.2124 35.36C17.679 35.0827 16.9004 34.9333 15.8764 34.912L12.4844 34.848V52.736C12.4844 53.2267 12.5484 53.632 12.6764 53.952C12.8044 54.2507 13.039 54.4747 13.3804 54.624C13.743 54.7733 14.2337 54.88 14.8524 54.944L15.8444 55.04V56H6.11638ZM20.3134 56V55.04L21.2734 54.88C21.9347 54.7733 22.3614 54.6027 22.5534 54.368C22.7667 54.112 22.8734 53.6533 22.8734 52.992V43.456C22.8734 42.7307 22.7027 42.24 22.3614 41.984C22.0414 41.7067 21.38 41.504 20.3774 41.376V40.576L25.2094 39.168H25.6574V41.728H25.9454C26.4787 40.96 27.1294 40.3307 27.8974 39.84C28.6867 39.3493 29.5827 39.104 30.5854 39.104C31.3534 39.104 31.9294 39.264 32.3134 39.584C32.7187 39.904 32.9214 40.32 32.9214 40.832C32.9214 41.1733 32.7827 41.4827 32.5054 41.76C32.2494 42.0373 31.94 42.2293 31.5774 42.336C31.2147 42.4213 30.8627 42.368 30.5214 42.176L28.9854 41.28C28.7294 41.1307 28.42 41.152 28.0574 41.344C27.6947 41.536 27.332 41.792 26.9694 42.112C26.628 42.4107 26.34 42.7093 26.1054 43.008C25.8707 43.2853 25.7534 43.4453 25.7534 43.488V52.992C25.7534 53.6533 25.86 54.112 26.0734 54.368C26.2867 54.6027 26.7134 54.7627 27.3534 54.848L28.9534 55.04V56H20.3134ZM40.9154 56.32C39.3367 56.32 37.95 55.9573 36.7554 55.232C35.5607 54.4853 34.6327 53.4827 33.9714 52.224C33.3314 50.9653 33.0114 49.5467 33.0114 47.968C33.0114 46.24 33.3847 44.704 34.1314 43.36C34.8994 42.016 35.9234 40.96 37.2034 40.192C38.4834 39.424 39.8914 39.04 41.4274 39.04C43.1127 39.04 44.4674 39.52 45.4914 40.48C46.5154 41.44 47.0274 42.8373 47.0274 44.672C47.0274 44.8 47.0274 44.9387 47.0274 45.088C47.0274 45.216 47.006 45.3973 46.9634 45.632L46.8994 46.08H35.4114V44.864H43.8594C43.9234 44.4373 43.9554 44.0427 43.9554 43.68C43.9554 42.6133 43.678 41.7813 43.1234 41.184C42.5687 40.5867 41.7687 40.288 40.7234 40.288C39.294 40.288 38.1314 40.8533 37.2354 41.984C36.3607 43.1147 35.9234 44.6293 35.9234 46.528C35.9234 47.9573 36.1794 49.248 36.6914 50.4C37.2247 51.5307 37.9714 52.4267 38.9314 53.088C39.9127 53.728 41.0647 54.048 42.3874 54.048C43.134 54.048 43.8594 53.92 44.5634 53.664C45.2674 53.408 46.014 52.9813 46.8034 52.384L47.4434 52.992C46.4194 54.1653 45.3847 55.0187 44.3394 55.552C43.294 56.064 42.1527 56.32 40.9154 56.32ZM49.0946 56V55.04L50.0546 54.88C50.6946 54.7733 51.1213 54.6027 51.3346 54.368C51.548 54.112 51.6546 53.6533 51.6546 52.992V43.456C51.6546 42.7733 51.5053 42.2933 51.2066 42.016C50.908 41.7173 50.2253 41.504 49.1586 41.376V40.576L53.9906 39.168H54.4386V41.504H54.6306C55.6546 40.608 56.604 39.9787 57.4786 39.616C58.3533 39.232 59.3773 39.04 60.5506 39.04C62.0653 39.04 63.2493 39.424 64.1026 40.192C64.9773 40.9387 65.4146 42.0053 65.4146 43.392V52.992C65.4146 53.6533 65.5213 54.112 65.7346 54.368C65.948 54.6027 66.3746 54.7733 67.0146 54.88L67.9746 55.04V56H59.9746V55.04L60.9346 54.88C61.5746 54.7733 62.0013 54.6027 62.2146 54.368C62.428 54.112 62.5346 53.6533 62.5346 52.992V44.352C62.5346 43.5627 62.396 42.9227 62.1186 42.432C61.8413 41.9413 61.4253 41.5787 60.8706 41.344C60.3373 41.088 59.644 40.96 58.7906 40.96C57.9586 40.96 57.212 41.1093 56.5506 41.408C55.8893 41.6853 55.2173 42.1333 54.5346 42.752V52.992C54.5346 53.6533 54.6413 54.112 54.8546 54.368C55.068 54.6027 55.4946 54.7733 56.1346 54.88L57.0946 55.04V56H49.0946ZM76.9674 56.32C75.5167 56.32 74.226 55.968 73.0954 55.264C71.9647 54.56 71.0794 53.5893 70.4394 52.352C69.8207 51.1147 69.5114 49.7067 69.5114 48.128C69.5114 46.3787 69.8847 44.8213 70.6314 43.456C71.3994 42.0907 72.434 41.0133 73.7354 40.224C75.0367 39.4347 76.498 39.04 78.1194 39.04C78.866 39.04 79.6127 39.1253 80.3594 39.296C81.106 39.4667 81.8207 39.776 82.5034 40.224V34.688C82.5034 34.0053 82.354 33.5253 82.0554 33.248C81.7567 32.9493 81.074 32.736 80.0074 32.608V31.808L84.9354 30.4H85.3834V51.968C85.3834 52.6293 85.5327 53.1093 85.8314 53.408C86.13 53.7067 86.834 53.92 87.9434 54.048V54.912L83.0474 56.064H82.5994V53.856H82.3114C81.714 54.496 81.106 54.9973 80.4874 55.36C79.89 55.7227 79.2927 55.968 78.6954 56.096C78.1194 56.2453 77.5434 56.32 76.9674 56.32ZM78.4714 54.24C79.1327 54.24 79.8047 54.1227 80.4874 53.888C81.17 53.632 81.842 53.1627 82.5034 52.48V45.056C82.5034 43.9253 82.2794 43.008 81.8314 42.304C81.3834 41.6 80.8074 41.088 80.1034 40.768C79.4207 40.4267 78.6847 40.256 77.8954 40.256C76.146 40.256 74.8127 40.8107 73.8954 41.92C72.978 43.0293 72.5194 44.6293 72.5194 46.72C72.5194 48.2347 72.7647 49.5573 73.2554 50.688C73.746 51.8187 74.4394 52.6933 75.3354 53.312C76.2314 53.9307 77.2767 54.24 78.4714 54.24ZM89.0634 56V55.04L90.0234 54.88C90.6634 54.7733 91.09 54.6027 91.3034 54.368C91.5167 54.112 91.6234 53.6533 91.6234 52.992V43.456C91.6234 42.7733 91.474 42.2933 91.1754 42.016C90.8767 41.7173 90.194 41.504 89.1274 41.376V40.576L94.0554 39.168H94.5034V52.992C94.5034 53.6533 94.61 54.112 94.8234 54.368C95.0367 54.6027 95.4634 54.7733 96.1034 54.88L97.0634 55.04V56H89.0634ZM92.7434 36.704C92.21 36.704 91.762 36.5333 91.3994 36.192C91.0367 35.8293 90.8554 35.3707 90.8554 34.816C90.8554 34.2613 91.0367 33.8133 91.3994 33.472C91.762 33.1307 92.21 32.96 92.7434 32.96C93.2554 32.96 93.6927 33.1307 94.0554 33.472C94.418 33.8133 94.5994 34.2613 94.5994 34.816C94.5994 35.3707 94.418 35.8293 94.0554 36.192C93.6927 36.5333 93.2554 36.704 92.7434 36.704ZM98.4429 56V55.04L99.4029 54.88C100.064 54.7733 100.491 54.6027 100.683 54.368C100.896 54.112 101.003 53.6533 101.003 52.992V41.28H98.1549V40.8L98.9869 39.36H101.003V38.848C101.003 37.696 101.238 36.608 101.707 35.584C102.198 34.5387 102.848 33.6213 103.659 32.832C104.491 32.0213 105.408 31.392 106.411 30.944C107.435 30.496 108.48 30.272 109.547 30.272C110.379 30.272 111.126 30.432 111.787 30.752C112.47 31.072 112.811 31.4987 112.811 32.032C112.811 32.3947 112.619 32.7147 112.235 32.992C111.872 33.2693 111.478 33.3013 111.051 33.088L108.587 31.936C108.331 31.8293 108.086 31.776 107.851 31.776C107.318 31.776 106.742 32.032 106.123 32.544C105.504 33.0347 104.971 33.728 104.523 34.624C104.096 35.4987 103.883 36.512 103.883 37.664V39.36H109.323V39.84L108.491 41.28H103.883V52.672C103.883 53.3973 104.011 53.92 104.267 54.24C104.523 54.56 104.982 54.7627 105.643 54.848L107.083 55.04V56H98.4429ZM112.514 63.904V63.424L118.178 55.264L112.61 42.816C112.269 42.0693 111.906 41.504 111.522 41.12C111.159 40.736 110.754 40.5013 110.306 40.416L109.762 40.32V39.36H117.698V40.32L116.898 40.384C115.383 40.512 114.946 41.3227 115.586 42.816L120.002 53.216L119.074 53.248L122.946 43.488C123.373 42.4427 123.458 41.6853 123.202 41.216C122.967 40.7253 122.477 40.448 121.73 40.384L121.058 40.32V39.36H127.714V40.32L127.042 40.416C126.679 40.4587 126.37 40.5653 126.114 40.736C125.858 40.9067 125.602 41.1947 125.346 41.6C125.111 42.0053 124.834 42.592 124.514 43.36L115.81 63.904H112.514Z" fill="#8B5E35"/>
</svg>
