<svg width="32" height="32" viewBox="0 0 32 32" fill="none" xmlns="http://www.w3.org/2000/svg">
<path d="M28 15.7008C28 15.5465 28 15.399 27.9933 15.2448C27.9262 13.1794 27.3898 11.2347 26.4912 9.53143C24.4392 5.63537 20.5163 3 16.0033 3C11.4904 3 7.56077 5.63537 5.5088 9.53143C4.61023 11.2414 4.07377 13.1794 4.00671 15.2448C4.00001 15.399 4 15.5465 4 15.7008V22.0176C4 24.7871 5.95137 27.0939 8.55992 27.6505C8.84157 27.9388 9.27076 28.1333 9.75357 28.1333C10.2364 28.1333 10.6656 27.9455 10.9472 27.6505L10.9673 27.6303V16.4049H10.9606C10.6857 16.1031 10.2431 15.9019 9.74686 15.9019C9.25063 15.9019 8.80805 16.1031 8.53312 16.4049H8.5264C7.62783 16.5926 6.80973 17.0017 6.12574 17.5583C6.0721 17.6052 5.6362 17.9941 5.50209 18.1551V15.5868C5.50209 15.4057 5.64962 15.2515 5.83738 15.2515H5.8508H5.98491C6.2062 9.6052 10.6052 5.09891 15.9899 5.09891C21.3747 5.09891 25.767 9.6052 25.9883 15.2515H26.1425C26.3302 15.2515 26.4778 15.4057 26.4778 15.5868V18.1551C26.3437 17.9941 26.1894 17.8399 26.0285 17.7125C26.0285 17.7125 25.9078 17.6052 25.8541 17.5583C25.1702 17.0017 24.3521 16.5993 23.4535 16.4049C23.1718 16.1031 22.7293 15.9019 22.233 15.9019C21.7368 15.9019 21.3076 16.0897 21.0193 16.3982V27.6437C21.0193 27.6437 21.026 27.6505 21.0327 27.6505C21.3143 27.9388 21.7502 28.1333 22.2263 28.1333C22.7024 28.1333 23.1383 27.9455 23.4199 27.6505C26.0285 27.0939 27.9799 24.7871 27.9799 22.0176C27.9799 21.575 27.9262 21.1391 27.8324 20.7234C27.9262 21.1391 27.9799 21.5683 27.9799 22.0176V15.7008H28Z" fill="#8B5E35"/>
<path d="M8.73366 24.0034C8.57272 24.0034 8.44531 23.876 8.44531 23.7151V20.3421C8.44531 20.1811 8.57272 20.0537 8.73366 20.0537C8.89459 20.0537 9.022 20.1811 9.022 20.3421V23.7151C9.022 23.876 8.89459 24.0034 8.73366 24.0034Z" fill="#8B5E35"/>
<path d="M7.44069 23.2862C7.27975 23.2862 7.15234 23.1587 7.15234 22.9978V21.0598C7.15234 20.8989 7.27975 20.7715 7.44069 20.7715C7.60163 20.7715 7.72903 20.8989 7.72903 21.0598V22.9978C7.72903 23.1587 7.60163 23.2862 7.44069 23.2862Z" fill="#8B5E35"/>
<path d="M23.218 24.0288C23.0571 24.0288 22.9297 23.9014 22.9297 23.7405V20.3675C22.9297 20.2065 23.0571 20.0791 23.218 20.0791C23.379 20.0791 23.5064 20.2065 23.5064 20.3675V23.7405C23.5064 23.9014 23.379 24.0288 23.218 24.0288Z" fill="#8B5E35"/>
<path d="M24.511 23.3115C24.3501 23.3115 24.2227 23.1841 24.2227 23.0232V21.0852C24.2227 20.9243 24.3501 20.7969 24.511 20.7969C24.6719 20.7969 24.7993 20.9243 24.7993 21.0852V23.0232C24.7993 23.1841 24.6719 23.3115 24.511 23.3115Z" fill="#8B5E35"/>
</svg>
