<svg width="32" height="32" viewBox="0 0 32 32" fill="none" xmlns="http://www.w3.org/2000/svg">
<path d="M12 24.9424H20V26.8459C20 27.3508 19.7893 27.835 19.4142 28.192C19.0391 28.549 18.5304 28.7495 18 28.7495H14C13.4696 28.7495 12.9609 28.549 12.5858 28.192C12.2107 27.835 12 27.3508 12 26.8459V24.9424Z" stroke="#8B5E35" stroke-width="2" stroke-linecap="round" stroke-linejoin="round"/>
<path d="M25 12.5702C25.0006 11.4225 24.7588 10.2864 24.2891 9.22936C23.8194 8.17232 23.1314 7.2159 22.2657 6.41688C21.4001 5.61787 20.3747 4.99256 19.2502 4.57809C18.1257 4.16362 16.9252 3.96844 15.72 4.00415C13.3902 4.09671 11.1866 5.03699 9.564 6.63095C7.9414 8.22491 7.0236 10.3509 7 12.5702C7.00635 13.8752 7.32588 15.1615 7.93419 16.331C8.54251 17.5005 9.42353 18.5223 10.51 19.3183C10.9836 19.6734 11.3646 20.128 11.6231 20.6464C11.8815 21.1648 12.0106 21.7332 12 22.3069V24.9434H20V22.3069C20.0044 21.7247 20.147 21.1508 20.4171 20.6284C20.6872 20.1059 21.0779 19.6483 21.56 19.2898C22.6296 18.49 23.4949 17.4698 24.0907 16.306C24.6865 15.1421 24.9974 13.8648 25 12.5702V12.5702Z" stroke="#8B5E35" stroke-width="2" stroke-linecap="round" stroke-linejoin="round"/>
<path d="M16 24.9424V17.3281" stroke="#8B5E35" stroke-width="1.5" stroke-linecap="round" stroke-linejoin="round"/>
<path d="M18 13.5208C18 12.4694 17.1046 11.6172 16 11.6172C14.8954 11.6172 14 12.4694 14 13.5208V15.4243C14 16.4756 14.8954 17.3279 16 17.3279C17.1046 17.3279 18 16.4756 18 15.4243V13.5208Z" stroke="#8B5E35" stroke-width="1.5" stroke-linecap="round" stroke-linejoin="round"/>
</svg>
