<svg width="40" height="40" viewBox="0 0 40 40" fill="none" xmlns="http://www.w3.org/2000/svg">
<path d="M13.482 19.3831H5.66536C5.7987 11.5998 7.33203 10.3165 12.1154 7.48312C12.6654 7.14979 12.8487 6.44979 12.5154 5.88312C12.1987 5.33312 11.482 5.14979 10.932 5.48312C5.2987 8.81646 3.33203 10.8498 3.33203 20.5331V29.5165C3.33203 32.3665 5.6487 34.6665 8.48203 34.6665H13.482C16.4154 34.6665 18.632 32.4498 18.632 29.5165V24.5165C18.632 21.5998 16.4154 19.3831 13.482 19.3831Z" fill="#8B5E35"/>
<path d="M31.5182 19.3831H23.7016C23.8349 11.5998 25.3682 10.3165 30.1516 7.48312C30.7016 7.14979 30.8849 6.44979 30.5516 5.88312C30.2182 5.33312 29.5182 5.14979 28.9516 5.48312C23.3182 8.81646 21.3516 10.8498 21.3516 20.5498V29.5331C21.3516 32.3831 23.6682 34.6831 26.5016 34.6831H31.5016C34.4349 34.6831 36.6516 32.4665 36.6516 29.5331V24.5331C36.6682 21.5998 34.4516 19.3831 31.5182 19.3831Z" fill="#8B5E35"/>
</svg>
