<svg width="127" height="34" viewBox="0 0 127 34" fill="none" xmlns="http://www.w3.org/2000/svg">
<path d="M5.37419 25.728V24.768L6.36619 24.672C7.00619 24.608 7.49685 24.5014 7.83819 24.352C8.17952 24.2027 8.41419 23.9787 8.54219 23.68C8.67019 23.36 8.73419 22.9547 8.73419 22.464V4.57603L5.34219 4.64003C4.31819 4.66136 3.53952 4.81069 3.00619 5.08803C2.47285 5.36536 2.06752 5.78136 1.79019 6.33603C1.51285 6.86936 1.23552 7.55203 0.958188 8.38403H-0.00181249L0.286188 3.13603C0.904854 3.20003 1.61952 3.25336 2.43019 3.29603C3.26219 3.31736 4.08352 3.32803 4.89419 3.32803H15.5822C16.2649 3.32803 17.0222 3.31736 17.8542 3.29603C18.7075 3.25336 19.4862 3.20003 20.1902 3.13603L20.4782 8.38403H19.5182C19.2409 7.55203 18.9635 6.86936 18.6862 6.33603C18.4089 5.78136 18.0035 5.36536 17.4702 5.08803C16.9369 4.81069 16.1582 4.66136 15.1342 4.64003L11.7422 4.57603V22.464C11.7422 22.9547 11.8062 23.36 11.9342 23.68C12.0622 23.9787 12.2969 24.2027 12.6382 24.352C13.0009 24.5014 13.4915 24.608 14.1102 24.672L15.1022 24.768V25.728H5.37419ZM19.5712 25.728V24.768L20.5312 24.608C21.1925 24.5014 21.6192 24.3307 21.8112 24.096C22.0245 23.84 22.1312 23.3814 22.1312 22.72V13.184C22.1312 12.4587 21.9605 11.968 21.6192 11.712C21.2992 11.4347 20.6379 11.232 19.6352 11.104V10.304L24.4672 8.89603H24.9152V11.456H25.2032C25.7365 10.688 26.3872 10.0587 27.1552 9.56803C27.9445 9.07736 28.8405 8.83203 29.8432 8.83203C30.6112 8.83203 31.1872 8.99203 31.5712 9.31203C31.9765 9.63203 32.1792 10.048 32.1792 10.56C32.1792 10.9014 32.0405 11.2107 31.7632 11.488C31.5072 11.7654 31.1979 11.9574 30.8352 12.064C30.4725 12.1494 30.1205 12.096 29.7792 11.904L28.2432 11.008C27.9872 10.8587 27.6779 10.88 27.3152 11.072C26.9525 11.264 26.5899 11.52 26.2272 11.84C25.8859 12.1387 25.5979 12.4374 25.3632 12.736C25.1285 13.0134 25.0112 13.1734 25.0112 13.216V22.72C25.0112 23.3814 25.1179 23.84 25.3312 24.096C25.5445 24.3307 25.9712 24.4907 26.6112 24.576L28.2112 24.768V25.728H19.5712ZM40.1732 26.048C38.5945 26.048 37.2079 25.6854 36.0132 24.96C34.8185 24.2134 33.8905 23.2107 33.2292 21.952C32.5892 20.6934 32.2692 19.2747 32.2692 17.696C32.2692 15.968 32.6425 14.432 33.3892 13.088C34.1572 11.744 35.1812 10.688 36.4612 9.92003C37.7412 9.15203 39.1492 8.76803 40.6852 8.76803C42.3705 8.76803 43.7252 9.24803 44.7492 10.208C45.7732 11.168 46.2852 12.5654 46.2852 14.4C46.2852 14.528 46.2852 14.6667 46.2852 14.816C46.2852 14.944 46.2639 15.1254 46.2212 15.36L46.1572 15.808H34.6692V14.592H43.1172C43.1812 14.1654 43.2132 13.7707 43.2132 13.408C43.2132 12.3414 42.9359 11.5094 42.3812 10.912C41.8265 10.3147 41.0265 10.016 39.9812 10.016C38.5519 10.016 37.3892 10.5814 36.4932 11.712C35.6185 12.8427 35.1812 14.3574 35.1812 16.256C35.1812 17.6854 35.4372 18.976 35.9492 20.128C36.4825 21.2587 37.2292 22.1547 38.1892 22.816C39.1705 23.456 40.3225 23.776 41.6452 23.776C42.3919 23.776 43.1172 23.648 43.8212 23.392C44.5252 23.136 45.2719 22.7094 46.0612 22.112L46.7012 22.72C45.6772 23.8934 44.6425 24.7467 43.5972 25.28C42.5519 25.792 41.4105 26.048 40.1732 26.048ZM48.3524 25.728V24.768L49.3124 24.608C49.9524 24.5014 50.3791 24.3307 50.5924 24.096C50.8058 23.84 50.9124 23.3814 50.9124 22.72V13.184C50.9124 12.5014 50.7631 12.0214 50.4644 11.744C50.1658 11.4454 49.4831 11.232 48.4164 11.104V10.304L53.2484 8.89603H53.6964V11.232H53.8884C54.9124 10.336 55.8618 9.70669 56.7364 9.34403C57.6111 8.96003 58.6351 8.76803 59.8084 8.76803C61.3231 8.76803 62.5071 9.15203 63.3604 9.92003C64.2351 10.6667 64.6724 11.7334 64.6724 13.12V22.72C64.6724 23.3814 64.7791 23.84 64.9924 24.096C65.2058 24.3307 65.6324 24.5014 66.2724 24.608L67.2324 24.768V25.728H59.2324V24.768L60.1924 24.608C60.8324 24.5014 61.2591 24.3307 61.4724 24.096C61.6858 23.84 61.7924 23.3814 61.7924 22.72V14.08C61.7924 13.2907 61.6538 12.6507 61.3764 12.16C61.0991 11.6694 60.6831 11.3067 60.1284 11.072C59.5951 10.816 58.9018 10.688 58.0484 10.688C57.2164 10.688 56.4698 10.8374 55.8084 11.136C55.1471 11.4134 54.4751 11.8614 53.7924 12.48V22.72C53.7924 23.3814 53.8991 23.84 54.1124 24.096C54.3258 24.3307 54.7524 24.5014 55.3924 24.608L56.3524 24.768V25.728H48.3524ZM76.2252 26.048C74.7745 26.048 73.4839 25.696 72.3532 24.992C71.2225 24.288 70.3372 23.3174 69.6972 22.08C69.0785 20.8427 68.7692 19.4347 68.7692 17.856C68.7692 16.1067 69.1425 14.5494 69.8892 13.184C70.6572 11.8187 71.6919 10.7414 72.9932 9.95203C74.2945 9.16269 75.7559 8.76803 77.3772 8.76803C78.1239 8.76803 78.8705 8.85336 79.6172 9.02403C80.3639 9.19469 81.0785 9.50403 81.7612 9.95203V4.41603C81.7612 3.73336 81.6119 3.25336 81.3132 2.97603C81.0145 2.67736 80.3319 2.46403 79.2652 2.33603V1.53603L84.1932 0.128027H84.6412V21.696C84.6412 22.3574 84.7905 22.8374 85.0892 23.136C85.3879 23.4347 86.0919 23.648 87.2012 23.776V24.64L82.3052 25.792H81.8572V23.584H81.5692C80.9719 24.224 80.3639 24.7254 79.7452 25.088C79.1479 25.4507 78.5505 25.696 77.9532 25.824C77.3772 25.9734 76.8012 26.048 76.2252 26.048ZM77.7292 23.968C78.3905 23.968 79.0625 23.8507 79.7452 23.616C80.4279 23.36 81.0999 22.8907 81.7612 22.208V14.784C81.7612 13.6534 81.5372 12.736 81.0892 12.032C80.6412 11.328 80.0652 10.816 79.3612 10.496C78.6785 10.1547 77.9425 9.98403 77.1532 9.98403C75.4039 9.98403 74.0705 10.5387 73.1532 11.648C72.2359 12.7574 71.7772 14.3574 71.7772 16.448C71.7772 17.9627 72.0225 19.2854 72.5132 20.416C73.0039 21.5467 73.6972 22.4214 74.5932 23.04C75.4892 23.6587 76.5345 23.968 77.7292 23.968ZM88.3212 25.728V24.768L89.2812 24.608C89.9212 24.5014 90.3479 24.3307 90.5612 24.096C90.7745 23.84 90.8812 23.3814 90.8812 22.72V13.184C90.8812 12.5014 90.7319 12.0214 90.4332 11.744C90.1345 11.4454 89.4519 11.232 88.3852 11.104V10.304L93.3132 8.89603H93.7612V22.72C93.7612 23.3814 93.8679 23.84 94.0812 24.096C94.2945 24.3307 94.7212 24.5014 95.3612 24.608L96.3212 24.768V25.728H88.3212ZM92.0012 6.43203C91.4679 6.43203 91.0199 6.26136 90.6572 5.92003C90.2945 5.55736 90.1132 5.09869 90.1132 4.54403C90.1132 3.98936 90.2945 3.54136 90.6572 3.20003C91.0199 2.85869 91.4679 2.68803 92.0012 2.68803C92.5132 2.68803 92.9505 2.85869 93.3132 3.20003C93.6759 3.54136 93.8572 3.98936 93.8572 4.54403C93.8572 5.09869 93.6759 5.55736 93.3132 5.92003C92.9505 6.26136 92.5132 6.43203 92.0012 6.43203ZM97.7007 25.728V24.768L98.6607 24.608C99.322 24.5014 99.7487 24.3307 99.9407 24.096C100.154 23.84 100.261 23.3814 100.261 22.72V11.008H97.4127V10.528L98.2447 9.08803H100.261V8.57603C100.261 7.42403 100.495 6.33603 100.965 5.31203C101.455 4.26669 102.106 3.34936 102.917 2.56003C103.749 1.74936 104.666 1.12003 105.669 0.672026C106.693 0.224026 107.738 2.67029e-05 108.805 2.67029e-05C109.637 2.67029e-05 110.383 0.160027 111.045 0.480026C111.727 0.800026 112.069 1.22669 112.069 1.76003C112.069 2.12269 111.877 2.44269 111.493 2.72003C111.13 2.99736 110.735 3.02936 110.309 2.81603L107.845 1.66403C107.589 1.55736 107.343 1.50403 107.109 1.50403C106.575 1.50403 105.999 1.76003 105.381 2.27203C104.762 2.76269 104.229 3.45603 103.781 4.35203C103.354 5.22669 103.141 6.24003 103.141 7.39203V9.08803H108.581V9.56803L107.749 11.008H103.141V22.4C103.141 23.1254 103.269 23.648 103.525 23.968C103.781 24.288 104.239 24.4907 104.901 24.576L106.341 24.768V25.728H97.7007ZM111.772 33.632V33.152L117.436 24.992L111.868 12.544C111.526 11.7974 111.164 11.232 110.78 10.848C110.417 10.464 110.012 10.2294 109.564 10.144L109.02 10.048V9.08803H116.956V10.048L116.156 10.112C114.641 10.24 114.204 11.0507 114.844 12.544L119.26 22.944L118.332 22.976L122.204 13.216C122.63 12.1707 122.716 11.4134 122.46 10.944C122.225 10.4534 121.734 10.176 120.988 10.112L120.316 10.048V9.08803H126.972V10.048L126.3 10.144C125.937 10.1867 125.628 10.2934 125.372 10.464C125.116 10.6347 124.86 10.9227 124.604 11.328C124.369 11.7334 124.092 12.32 123.772 13.088L115.068 33.632H111.772Z" fill="#8B5E35"/>
</svg>
